<svg xmlns="http://www.w3.org/2000/svg" xmlns:xlink="http://www.w3.org/1999/xlink" width="156" height="86" viewBox="0 0 156 86">
  <defs>
    <linearGradient id="linear-gradient" x1="1.561" y1="0.387" x2="-0.285" y2="0.144" gradientUnits="objectBoundingBox">
      <stop offset="0" stop-color="#ed3237"/>
      <stop offset="1" stop-color="#c13437"/>
    </linearGradient>
    <linearGradient id="linear-gradient-2" y1="1" x2="0.5" y2="0.04" gradientUnits="objectBoundingBox">
      <stop offset="0" stop-color="#c13437"/>
      <stop offset="1" stop-color="#ed3237"/>
    </linearGradient>
    <linearGradient id="linear-gradient-3" x1="1" x2="0.466" y2="0.96" gradientUnits="objectBoundingBox">
      <stop offset="0" stop-color="#cbccce"/>
      <stop offset="1" stop-color="#e1e1e3"/>
    </linearGradient>
    <linearGradient id="linear-gradient-4" x1="1" y1="0.111" x2="0" y2="0.459" gradientUnits="objectBoundingBox">
      <stop offset="0" stop-color="#dedee0"/>
      <stop offset="1" stop-color="#e1e1e3"/>
    </linearGradient>
    <linearGradient id="linear-gradient-7" x1="1.269" y1="1.426" x2="-0.084" y2="-0.378" xlink:href="#linear-gradient"/>
    <linearGradient id="linear-gradient-8" x1="0" y1="0.798" x2="0.869" y2="0.087" xlink:href="#linear-gradient-2"/>
    <linearGradient id="linear-gradient-9" x1="1" y1="0.229" x2="0.127" y2="0.911" xlink:href="#linear-gradient-3"/>
    <linearGradient id="linear-gradient-10" x1="0.998" y1="1.001" x2="0.01" y2="0" xlink:href="#linear-gradient-4"/>
    <linearGradient id="linear-gradient-13" x1="0.157" y1="1.511" x2="1.405" y2="-0.227" xlink:href="#linear-gradient"/>
    <linearGradient id="linear-gradient-14" x1="0.001" y1="0" x2="0.948" y2="0.743" xlink:href="#linear-gradient-2"/>
    <linearGradient id="linear-gradient-15" x1="0.998" y1="1" x2="0.054" y2="0.245" xlink:href="#linear-gradient-3"/>
    <linearGradient id="linear-gradient-16" x1="0" y1="0.999" x2="1" y2="0" xlink:href="#linear-gradient-4"/>
    <linearGradient id="linear-gradient-19" x1="-0.538" y1="1.01" x2="1.341" y2="0.215" xlink:href="#linear-gradient"/>
    <linearGradient id="linear-gradient-20" x1="0.63" y1="0" x2="0.892" y2="0.912" xlink:href="#linear-gradient-2"/>
    <linearGradient id="linear-gradient-21" x1="0.31" y1="1" x2="0.109" y2="0.084" xlink:href="#linear-gradient-3"/>
    <linearGradient id="linear-gradient-22" x1="0" y1="0.998" x2="1" y2="0.079" xlink:href="#linear-gradient-4"/>
    <linearGradient id="linear-gradient-25" x1="-0.451" y1="-0.112" x2="1.187" y2="1.403" xlink:href="#linear-gradient"/>
    <linearGradient id="linear-gradient-26" x1="1" y1="0.021" x2="0.196" y2="0.937" xlink:href="#linear-gradient-2"/>
    <linearGradient id="linear-gradient-27" x1="0" y1="0.972" x2="0.81" y2="0.065" xlink:href="#linear-gradient-3"/>
    <linearGradient id="linear-gradient-28" x1="0.001" y1="0" x2="1" y2="1" xlink:href="#linear-gradient-4"/>
    <linearGradient id="linear-gradient-31" x1="0.179" y1="-0.561" x2="0.474" y2="1.314" xlink:href="#linear-gradient"/>
    <linearGradient id="linear-gradient-32" x1="1" y1="1" x2="0.062" y2="0.812" xlink:href="#linear-gradient-2"/>
    <linearGradient id="linear-gradient-33" x1="0" x2="0.942" y2="0.25" xlink:href="#linear-gradient-3"/>
    <linearGradient id="linear-gradient-34" x1="0.004" y1="0" x2="0.794" y2="1" xlink:href="#linear-gradient-4"/>
    <linearGradient id="linear-gradient-37" x1="1.305" y1="-0.366" x2="-0.393" y2="1.139" xlink:href="#linear-gradient"/>
    <linearGradient id="linear-gradient-38" x1="0.916" y1="1" x2="0.075" y2="0.16" xlink:href="#linear-gradient-2"/>
    <linearGradient id="linear-gradient-39" x1="0.099" x2="0.923" y2="0.845" xlink:href="#linear-gradient-3"/>
    <linearGradient id="linear-gradient-40" x1="1.001" y1="0.001" y2="1" xlink:href="#linear-gradient-4"/>
  </defs>
  <g id="logo_login" transform="translate(-79 -32)">
    <g id="Layer_x0020_1" transform="translate(128.372 32)">
      <g id="_2143237289664" transform="translate(0 0)">
        <g id="Group_2985" data-name="Group 2985" transform="translate(34.1 16.126)">
          <g id="Group_2982" data-name="Group 2982">
            <g id="Group_2981" data-name="Group 2981">
              <path id="Path_2296" data-name="Path 2296" d="M982.379,473.346a4.963,4.963,0,0,1,.7,2.774,5.869,5.869,0,0,1-4.127,5.09,6.5,6.5,0,0,0,2.517-3.886c.207-1.144-.771-2.708-3.276-2.668-2.653.043-4.844,2.117-7.609,1.689a20.784,20.784,0,0,0,4.994-1.513c2.247-.889,4.487-1.775,6.8-1.485Z" transform="translate(-967.018 -471.481)" fill-rule="evenodd" fill="url(#linear-gradient)"/>
              <path id="Path_2297" data-name="Path 2297" d="M878.42,429.431c6.278.339,7.333-3.171,12.15-2.938a3.841,3.841,0,0,1,2.935,1.46c-2.284-.189-4.47.675-6.662,1.542a16.663,16.663,0,0,1-5.948,1.555,8.072,8.072,0,0,1-2.476-1.619Z" transform="translate(-878.42 -426.482)" fill="#c13437" fill-rule="evenodd"/>
            </g>
            <path id="Path_2298" data-name="Path 2298" d="M1190.491,473.336a4.962,4.962,0,0,1,.7,2.774,5.869,5.869,0,0,1-4.127,5.09,6.516,6.516,0,0,0,3.183-4.638,4.3,4.3,0,0,0-1.41-3.247A7.694,7.694,0,0,1,1190.491,473.336Z" transform="translate(-1175.13 -471.471)" fill-rule="evenodd" fill="url(#linear-gradient-2)"/>
            <path id="Path_2299" data-name="Path 2299" d="M878.42,429.431c6.278.339,7.333-3.171,12.15-2.938a3.841,3.841,0,0,1,2.935,1.46,8.406,8.406,0,0,0-1.805.053,3.275,3.275,0,0,0-1.855-.521c-3.687.06-4.61,2.972-11.425,1.946Z" transform="translate(-878.42 -426.482)" fill="#ed3237" fill-rule="evenodd"/>
          </g>
          <g id="Group_2983" data-name="Group 2983" transform="translate(6.707 3.654)">
            <path id="Path_2300" data-name="Path 2300" d="M1052.56,528.778a4.967,4.967,0,0,1-.614-2.793,5.867,5.867,0,0,1,4.277-4.964,6.506,6.506,0,0,0-2.632,3.81c-.241,1.137.69,2.73,3.2,2.764,2.653.036,4.9-1.973,7.656-1.462a20.794,20.794,0,0,0-5.037,1.364C1057.133,528.317,1054.868,529.136,1052.56,528.778Z" transform="translate(-1051.934 -521.02)" fill="#e6e6e6" fill-rule="evenodd"/>
            <path id="Path_2301" data-name="Path 2301" d="M1090.082,663.346c-6.265-.526-7.424,2.951-12.232,2.576a3.841,3.841,0,0,1-2.891-1.546c2.278.257,4.487-.542,6.7-1.344a16.659,16.659,0,0,1,5.991-1.378A8.068,8.068,0,0,1,1090.082,663.346Z" transform="translate(-1074.07 -656.214)" fill="#ed3237" fill-rule="evenodd"/>
            <path id="Path_2302" data-name="Path 2302" d="M1052.56,528.778a4.967,4.967,0,0,1-.614-2.793,5.867,5.867,0,0,1,4.277-4.964,6.516,6.516,0,0,0-3.32,4.541,4.3,4.3,0,0,0,1.313,3.288A7.683,7.683,0,0,1,1052.56,528.778Z" transform="translate(-1051.934 -521.02)" fill-rule="evenodd" fill="url(#linear-gradient-3)"/>
            <path id="Path_2303" data-name="Path 2303" d="M1090.082,697.928c-6.265-.526-7.424,2.951-12.232,2.575a3.841,3.841,0,0,1-2.891-1.546,8.394,8.394,0,0,0,1.806,0,3.274,3.274,0,0,0,1.839.576c3.688.05,4.7-2.834,11.478-1.606Z" transform="translate(-1074.07 -690.797)" fill-rule="evenodd" fill="url(#linear-gradient-4)"/>
          </g>
          <g id="Group_2984" data-name="Group 2984" transform="translate(6.707 3.654)">
            <path id="Path_2304" data-name="Path 2304" d="M1052.56,528.778a4.967,4.967,0,0,1-.614-2.793,5.867,5.867,0,0,1,4.277-4.964,6.506,6.506,0,0,0-2.632,3.81c-.241,1.137.69,2.73,3.2,2.764,2.653.036,4.9-1.973,7.656-1.462a20.794,20.794,0,0,0-5.037,1.364C1057.133,528.317,1054.868,529.136,1052.56,528.778Z" transform="translate(-1051.934 -521.02)" fill="#e6e6e6" fill-rule="evenodd"/>
            <path id="Path_2305" data-name="Path 2305" d="M1090.082,663.346c-6.265-.526-7.424,2.951-12.232,2.576a3.841,3.841,0,0,1-2.891-1.546c2.278.257,4.487-.542,6.7-1.344a16.659,16.659,0,0,1,5.991-1.378A8.068,8.068,0,0,1,1090.082,663.346Z" transform="translate(-1074.07 -656.214)" fill="#ed3237" fill-rule="evenodd"/>
            <path id="Path_2306" data-name="Path 2306" d="M1052.56,528.778a4.967,4.967,0,0,1-.614-2.793,5.867,5.867,0,0,1,4.277-4.964,6.516,6.516,0,0,0-3.32,4.541,4.3,4.3,0,0,0,1.313,3.288A7.683,7.683,0,0,1,1052.56,528.778Z" transform="translate(-1051.934 -521.02)" fill-rule="evenodd" fill="url(#linear-gradient-3)"/>
            <path id="Path_2307" data-name="Path 2307" d="M1090.082,697.928c-6.265-.526-7.424,2.951-12.232,2.575a3.841,3.841,0,0,1-2.891-1.546,8.394,8.394,0,0,0,1.806,0,3.274,3.274,0,0,0,1.839.576c3.688.05,4.7-2.834,11.478-1.606Z" transform="translate(-1074.07 -690.797)" fill-rule="evenodd" fill="url(#linear-gradient-4)"/>
          </g>
        </g>
        <g id="Group_2990" data-name="Group 2990" transform="translate(36.944 27.215)">
          <g id="Group_2987" data-name="Group 2987" transform="translate(1.997)">
            <g id="Group_2986" data-name="Group 2986">
              <path id="Path_2308" data-name="Path 2308" d="M1035.156,838.583a4.967,4.967,0,0,1-1.676,2.318,5.868,5.868,0,0,1-6.551.115,6.5,6.5,0,0,0,4.595-.573c1.009-.577,1.577-2.333-.066-4.224-1.74-2-4.737-2.346-6.188-4.739a20.782,20.782,0,0,0,4.372,2.85C1031.768,835.478,1033.887,836.623,1035.156,838.583Z" transform="translate(-1024.435 -827.521)" fill-rule="evenodd" fill="url(#linear-gradient-7)"/>
              <path id="Path_2309" data-name="Path 2309" d="M1003.672,729.07c3.779,5.024,7.145,3.574,10.066,7.411a3.842,3.842,0,0,1,.771,3.186c-1.325-1.87-3.392-2.987-5.466-4.107a16.652,16.652,0,0,1-5.017-3.552,8.061,8.061,0,0,1-.353-2.937Z" transform="translate(-1003.663 -729.07)" fill="#c13437" fill-rule="evenodd"/>
            </g>
            <path id="Path_2310" data-name="Path 2310" d="M1076.417,983.343a4.967,4.967,0,0,1-1.676,2.318,5.868,5.868,0,0,1-6.551.115,6.516,6.516,0,0,0,5.6-.547,4.3,4.3,0,0,0,1.579-3.168A7.718,7.718,0,0,1,1076.417,983.343Z" transform="translate(-1065.696 -972.281)" fill-rule="evenodd" fill="url(#linear-gradient-8)"/>
            <path id="Path_2311" data-name="Path 2311" d="M1003.9,729.07c3.779,5.024,7.145,3.574,10.066,7.411a3.841,3.841,0,0,1,.771,3.186,8.413,8.413,0,0,0-1.2-1.348,3.277,3.277,0,0,0-.8-1.755C1010.322,733.78,1007.5,734.947,1003.9,729.07Z" transform="translate(-1003.891 -729.07)" fill="#ed3237" fill-rule="evenodd"/>
          </g>
          <g id="Group_2988" data-name="Group 2988" transform="translate(0 7.832)">
            <path id="Path_2312" data-name="Path 2312" d="M958.33,934.913a4.961,4.961,0,0,1,1.744-2.267,5.868,5.868,0,0,1,6.552.08,6.5,6.5,0,0,0-4.61.436c-1.026.547-1.646,2.285-.06,4.224,1.68,2.054,4.666,2.485,6.045,4.921a20.777,20.777,0,0,0-4.285-2.978c-2.091-1.211-4.175-2.418-5.386-4.416Z" transform="translate(-958.085 -931.686)" fill="#e6e6e6" fill-rule="evenodd"/>
            <path id="Path_2313" data-name="Path 2313" d="M962.622,1038c-3.628-5.134-7.036-3.784-9.842-7.707a3.842,3.842,0,0,1-.676-3.208c1.269,1.909,3.3,3.087,5.342,4.268a16.66,16.66,0,0,1,4.909,3.7,8.076,8.076,0,0,1,.266,2.947Z" transform="translate(-951.998 -1023.402)" fill="#ed3237" fill-rule="evenodd"/>
            <path id="Path_2314" data-name="Path 2314" d="M958.33,934.913a4.961,4.961,0,0,1,1.744-2.267,5.868,5.868,0,0,1,6.552.08,6.515,6.515,0,0,0-5.612.381,4.3,4.3,0,0,0-1.672,3.12A7.694,7.694,0,0,1,958.33,934.913Z" transform="translate(-958.085 -931.686)" fill-rule="evenodd" fill="url(#linear-gradient-9)"/>
            <path id="Path_2315" data-name="Path 2315" d="M962.622,1038c-3.628-5.134-7.036-3.784-9.842-7.707a3.842,3.842,0,0,1-.676-3.208,8.412,8.412,0,0,0,1.161,1.383,3.274,3.274,0,0,0,.742,1.778c2.334,2.855,5.191,1.772,8.614,7.754Z" transform="translate(-951.998 -1023.402)" fill-rule="evenodd" fill="url(#linear-gradient-10)"/>
          </g>
          <g id="Group_2989" data-name="Group 2989" transform="translate(0 7.832)">
            <path id="Path_2316" data-name="Path 2316" d="M958.33,934.913a4.961,4.961,0,0,1,1.744-2.267,5.868,5.868,0,0,1,6.552.08,6.5,6.5,0,0,0-4.61.436c-1.026.547-1.646,2.285-.06,4.224,1.68,2.054,4.666,2.485,6.045,4.921a20.777,20.777,0,0,0-4.285-2.978c-2.091-1.211-4.175-2.418-5.386-4.416Z" transform="translate(-958.085 -931.686)" fill="#e6e6e6" fill-rule="evenodd"/>
            <path id="Path_2317" data-name="Path 2317" d="M962.622,1038c-3.628-5.134-7.036-3.784-9.842-7.707a3.842,3.842,0,0,1-.676-3.208c1.269,1.909,3.3,3.087,5.342,4.268a16.66,16.66,0,0,1,4.909,3.7,8.076,8.076,0,0,1,.266,2.947Z" transform="translate(-951.998 -1023.402)" fill="#ed3237" fill-rule="evenodd"/>
            <path id="Path_2318" data-name="Path 2318" d="M958.33,934.913a4.961,4.961,0,0,1,1.744-2.267,5.868,5.868,0,0,1,6.552.08,6.515,6.515,0,0,0-5.612.381,4.3,4.3,0,0,0-1.672,3.12A7.694,7.694,0,0,1,958.33,934.913Z" transform="translate(-958.085 -931.686)" fill-rule="evenodd" fill="url(#linear-gradient-9)"/>
            <path id="Path_2319" data-name="Path 2319" d="M962.622,1038c-3.628-5.134-7.036-3.784-9.842-7.707a3.842,3.842,0,0,1-.676-3.208,8.412,8.412,0,0,0,1.161,1.383,3.274,3.274,0,0,0,.742,1.778c2.334,2.855,5.191,1.772,8.614,7.754Z" transform="translate(-951.998 -1023.402)" fill-rule="evenodd" fill="url(#linear-gradient-10)"/>
          </g>
        </g>
        <g id="Group_2995" data-name="Group 2995" transform="translate(21.139 37.684)">
          <g id="Group_2992" data-name="Group 2992" transform="translate(4.368)">
            <g id="Group_2991" data-name="Group 2991">
              <path id="Path_2320" data-name="Path 2320" d="M619.652,1084.145a4.968,4.968,0,0,1-2.853-.2,5.868,5.868,0,0,1-3.546-5.51,6.5,6.5,0,0,0,2.906,3.605c1.022.554,2.814.113,3.557-2.279.787-2.533-.5-5.263.773-7.756a20.8,20.8,0,0,0-.122,5.217c.143,2.412.285,4.817-.714,6.927Z" transform="translate(-613.247 -1069.214)" fill-rule="evenodd" fill="url(#linear-gradient-13)"/>
              <path id="Path_2321" data-name="Path 2321" d="M794.177,999.92c-2.283,5.858.722,7.956-1,12.46a3.84,3.84,0,0,1-2.3,2.332c.893-2.11.755-4.456.615-6.81a16.654,16.654,0,0,1,.38-6.136,8.07,8.07,0,0,1,2.312-1.846Z" transform="translate(-784.004 -999.92)" fill="#c13437" fill-rule="evenodd"/>
            </g>
            <path id="Path_2322" data-name="Path 2322" d="M619.652,1244.055a4.966,4.966,0,0,1-2.853-.2,5.868,5.868,0,0,1-3.546-5.51,6.513,6.513,0,0,0,3.412,4.472,4.3,4.3,0,0,0,3.525-.325A7.694,7.694,0,0,1,619.652,1244.055Z" transform="translate(-613.247 -1229.124)" fill-rule="evenodd" fill="url(#linear-gradient-14)"/>
            <path id="Path_2323" data-name="Path 2323" d="M794.177,999.92c-2.283,5.858.722,7.956-1,12.46a3.84,3.84,0,0,1-2.3,2.332,8.419,8.419,0,0,0,.514-1.731,3.272,3.272,0,0,0,1.074-1.6c1.095-3.522-1.384-5.308,1.72-11.461Z" transform="translate(-784.004 -999.92)" fill="#ed3237" fill-rule="evenodd"/>
          </g>
          <g id="Group_2993" data-name="Group 2993" transform="translate(0 4.231)">
            <path id="Path_2324" data-name="Path 2324" d="M579.378,1109.462a4.97,4.97,0,0,1,2.845.29,5.868,5.868,0,0,1,3.38,5.613,6.5,6.5,0,0,0-2.8-3.69c-1.005-.584-2.809-.2-3.623,2.172-.863,2.509.342,5.275-1,7.729a20.786,20.786,0,0,0,.278-5.211c-.071-2.416-.141-4.823.92-6.9Z" transform="translate(-575.167 -1109.369)" fill="#e6e6e6" fill-rule="evenodd"/>
            <path id="Path_2325" data-name="Path 2325" d="M500.24,1129.677c2.456-5.787-.485-7.974,1.374-12.424a3.841,3.841,0,0,1,2.371-2.263c-.955,2.083-.887,4.432-.818,6.789a16.66,16.66,0,0,1-.562,6.122,8.068,8.068,0,0,1-2.366,1.777Z" transform="translate(-500.24 -1114.773)" fill="#ed3237" fill-rule="evenodd"/>
            <path id="Path_2326" data-name="Path 2326" d="M594.625,1109.462a4.969,4.969,0,0,1,2.845.29,5.868,5.868,0,0,1,3.38,5.613,6.515,6.515,0,0,0-3.277-4.572,4.3,4.3,0,0,0-3.533.22,7.69,7.69,0,0,1,.585-1.551Z" transform="translate(-590.414 -1109.369)" fill-rule="evenodd" fill="url(#linear-gradient-15)"/>
            <path id="Path_2327" data-name="Path 2327" d="M500.25,1129.677c2.456-5.787-.485-7.974,1.374-12.424A3.841,3.841,0,0,1,504,1114.99a8.415,8.415,0,0,0-.565,1.715,3.27,3.27,0,0,0-1.121,1.568c-1.2,3.487,1.225,5.346-2.059,11.405Z" transform="translate(-500.25 -1114.773)" fill-rule="evenodd" fill="url(#linear-gradient-16)"/>
          </g>
          <g id="Group_2994" data-name="Group 2994" transform="translate(0 4.231)">
            <path id="Path_2328" data-name="Path 2328" d="M579.378,1109.462a4.97,4.97,0,0,1,2.845.29,5.868,5.868,0,0,1,3.38,5.613,6.5,6.5,0,0,0-2.8-3.69c-1.005-.584-2.809-.2-3.623,2.172-.863,2.509.342,5.275-1,7.729a20.786,20.786,0,0,0,.278-5.211c-.071-2.416-.141-4.823.92-6.9Z" transform="translate(-575.167 -1109.369)" fill="#e6e6e6" fill-rule="evenodd"/>
            <path id="Path_2329" data-name="Path 2329" d="M500.24,1129.677c2.456-5.787-.485-7.974,1.374-12.424a3.841,3.841,0,0,1,2.371-2.263c-.955,2.083-.887,4.432-.818,6.789a16.66,16.66,0,0,1-.562,6.122,8.068,8.068,0,0,1-2.366,1.777Z" transform="translate(-500.24 -1114.773)" fill="#ed3237" fill-rule="evenodd"/>
            <path id="Path_2330" data-name="Path 2330" d="M594.625,1109.462a4.969,4.969,0,0,1,2.845.29,5.868,5.868,0,0,1,3.38,5.613,6.515,6.515,0,0,0-3.277-4.572,4.3,4.3,0,0,0-3.533.22,7.69,7.69,0,0,1,.585-1.551Z" transform="translate(-590.414 -1109.369)" fill-rule="evenodd" fill="url(#linear-gradient-15)"/>
            <path id="Path_2331" data-name="Path 2331" d="M500.25,1129.677c2.456-5.787-.485-7.974,1.374-12.424A3.841,3.841,0,0,1,504,1114.99a8.415,8.415,0,0,0-.565,1.715,3.27,3.27,0,0,0-1.121,1.568c-1.2,3.487,1.225,5.346-2.059,11.405Z" transform="translate(-500.25 -1114.773)" fill-rule="evenodd" fill="url(#linear-gradient-16)"/>
          </g>
        </g>
        <g id="Group_3000" data-name="Group 3000" transform="translate(0 33.766)">
          <g id="Group_2997" data-name="Group 2997" transform="translate(8.205 4.113)">
            <g id="Group_2996" data-name="Group 2996">
              <path id="Path_2332" data-name="Path 2332" d="M214.216,1008.025a4.968,4.968,0,0,1-1.68-2.315,5.868,5.868,0,0,1,1.934-6.26,6.5,6.5,0,0,0-.889,4.544c.234,1.139,1.725,2.226,4.034,1.255,2.446-1.028,3.706-3.769,6.433-4.4a20.8,20.8,0,0,0-4.071,3.265c-1.754,1.662-3.5,3.318-5.761,3.912Z" transform="translate(-212.269 -999.45)" fill-rule="evenodd" fill="url(#linear-gradient-19)"/>
              <path id="Path_2333" data-name="Path 2333" d="M286.5,1032.8c-5.952,2.024-5.624,5.674-10.181,7.252a3.84,3.84,0,0,1-3.267-.261c2.19-.675,3.9-2.292,5.607-3.913a16.651,16.651,0,0,1,4.94-3.659A8.068,8.068,0,0,1,286.5,1032.8Z" transform="translate(-270.701 -1030.955)" fill="#c13437" fill-rule="evenodd"/>
            </g>
            <path id="Path_2334" data-name="Path 2334" d="M214.216,1008.025a4.968,4.968,0,0,1-1.68-2.315,5.868,5.868,0,0,1,1.934-6.26,6.515,6.515,0,0,0-1.226,5.49,4.3,4.3,0,0,0,2.518,2.488,7.688,7.688,0,0,1-1.547.6Z" transform="translate(-212.269 -999.45)" fill-rule="evenodd" fill="url(#linear-gradient-20)"/>
            <path id="Path_2335" data-name="Path 2335" d="M286.5,1047.25c-5.952,2.023-5.624,5.674-10.181,7.252a3.84,3.84,0,0,1-3.267-.261,8.412,8.412,0,0,0,1.656-.721,3.276,3.276,0,0,0,1.916-.208c3.4-1.429,3.171-4.476,9.878-6.062Z" transform="translate(-270.701 -1045.402)" fill="#ed3237" fill-rule="evenodd"/>
          </g>
          <g id="Group_2998" data-name="Group 2998">
            <path id="Path_2336" data-name="Path 2336" d="M113.621,914.72a4.964,4.964,0,0,1,1.61,2.364,5.868,5.868,0,0,1-2.119,6.2,6.5,6.5,0,0,0,1.024-4.516c-.2-1.145-1.658-2.277-3.995-1.375-2.475.955-3.817,3.657-6.561,4.209a20.779,20.779,0,0,0,4.166-3.142c1.8-1.609,3.6-3.213,5.875-3.74Z" transform="translate(-99.576 -913.882)" fill="#e6e6e6" fill-rule="evenodd"/>
            <path id="Path_2337" data-name="Path 2337" d="M0,900.186c6.01-1.846,5.79-5.5,10.392-6.946a3.841,3.841,0,0,1,3.258.358c-2.209.61-3.963,2.175-5.721,3.744a16.653,16.653,0,0,1-5.047,3.511A8.079,8.079,0,0,1,0,900.186Z" transform="translate(0 -893.035)" fill="#ed3237" fill-rule="evenodd"/>
            <path id="Path_2338" data-name="Path 2338" d="M324.474,914.72a4.963,4.963,0,0,1,1.61,2.364,5.868,5.868,0,0,1-2.119,6.2,6.514,6.514,0,0,0,1.389-5.451,4.3,4.3,0,0,0-2.443-2.562A7.7,7.7,0,0,1,324.474,914.72Z" transform="translate(-310.428 -913.882)" fill-rule="evenodd" fill="url(#linear-gradient-21)"/>
            <path id="Path_2339" data-name="Path 2339" d="M0,900.186c6.01-1.846,5.79-5.5,10.392-6.946a3.841,3.841,0,0,1,3.258.358,8.406,8.406,0,0,0-1.676.672,3.275,3.275,0,0,0-1.921.151C6.613,895.748,6.751,898.8,0,900.186Z" transform="translate(0 -893.035)" fill-rule="evenodd" fill="url(#linear-gradient-22)"/>
          </g>
          <g id="Group_2999" data-name="Group 2999">
            <path id="Path_2340" data-name="Path 2340" d="M113.621,914.72a4.964,4.964,0,0,1,1.61,2.364,5.868,5.868,0,0,1-2.119,6.2,6.5,6.5,0,0,0,1.024-4.516c-.2-1.145-1.658-2.277-3.995-1.375-2.475.955-3.817,3.657-6.561,4.209a20.779,20.779,0,0,0,4.166-3.142c1.8-1.609,3.6-3.213,5.875-3.74Z" transform="translate(-99.576 -913.882)" fill="#e6e6e6" fill-rule="evenodd"/>
            <path id="Path_2341" data-name="Path 2341" d="M0,900.186c6.01-1.846,5.79-5.5,10.392-6.946a3.841,3.841,0,0,1,3.258.358c-2.209.61-3.963,2.175-5.721,3.744a16.653,16.653,0,0,1-5.047,3.511A8.079,8.079,0,0,1,0,900.186Z" transform="translate(0 -893.035)" fill="#ed3237" fill-rule="evenodd"/>
            <path id="Path_2342" data-name="Path 2342" d="M324.474,914.72a4.963,4.963,0,0,1,1.61,2.364,5.868,5.868,0,0,1-2.119,6.2,6.514,6.514,0,0,0,1.389-5.451,4.3,4.3,0,0,0-2.443-2.562A7.7,7.7,0,0,1,324.474,914.72Z" transform="translate(-310.428 -913.882)" fill-rule="evenodd" fill="url(#linear-gradient-21)"/>
            <path id="Path_2343" data-name="Path 2343" d="M0,900.186c6.01-1.846,5.79-5.5,10.392-6.946a3.841,3.841,0,0,1,3.258.358,8.406,8.406,0,0,0-1.676.672,3.275,3.275,0,0,0-1.921.151C6.613,895.748,6.751,898.8,0,900.186Z" transform="translate(0 -893.035)" fill-rule="evenodd" fill="url(#linear-gradient-22)"/>
          </g>
        </g>
        <g id="Group_3005" data-name="Group 3005" transform="translate(0.061 15.769)">
          <g id="Group_3002" data-name="Group 3002" transform="translate(2.182 5.963)">
            <g id="Group_3001" data-name="Group 3001">
              <path id="Path_2344" data-name="Path 2344" d="M58.025,577.7a4.964,4.964,0,0,1,.717-2.769,5.868,5.868,0,0,1,6.06-2.491,6.5,6.5,0,0,0-4.071,2.206c-.73.9-.62,2.747,1.6,3.911,2.349,1.233,5.266.461,7.489,2.162a20.793,20.793,0,0,0-5.109-1.064c-2.4-.3-4.788-.591-6.684-1.955Z" transform="translate(-58.019 -572.309)" fill-rule="evenodd" fill="url(#linear-gradient-25)"/>
              <path id="Path_2345" data-name="Path 2345" d="M73.49,730.117c-5.348-3.3-7.956-.729-12.073-3.24a3.84,3.84,0,0,1-1.877-2.687c1.915,1.26,4.246,1.548,6.587,1.836a16.647,16.647,0,0,1,5.966,1.483,8.065,8.065,0,0,1,1.4,2.608Z" transform="translate(-59.481 -718.319)" fill="#c13437" fill-rule="evenodd"/>
            </g>
            <path id="Path_2346" data-name="Path 2346" d="M58.025,577.7a4.964,4.964,0,0,1,.717-2.769,5.868,5.868,0,0,1,6.06-2.491,6.515,6.515,0,0,0-5.016,2.547,4.3,4.3,0,0,0-.317,3.526,7.72,7.72,0,0,1-1.445-.813Z" transform="translate(-58.019 -572.309)" fill-rule="evenodd" fill="url(#linear-gradient-26)"/>
            <path id="Path_2347" data-name="Path 2347" d="M73.49,730.117c-5.348-3.3-7.956-.729-12.073-3.24a3.84,3.84,0,0,1-1.877-2.687,8.392,8.392,0,0,0,1.61.818,3.277,3.277,0,0,0,1.379,1.346C65.795,728.067,68,725.952,73.49,730.117Z" transform="translate(-59.481 -718.319)" fill="#ed3237" fill-rule="evenodd"/>
          </g>
          <g id="Group_3003" data-name="Group 3003">
            <path id="Path_2348" data-name="Path 2348" d="M67.828,510.7a4.968,4.968,0,0,1-.8,2.746,5.869,5.869,0,0,1-6.132,2.31,6.5,6.5,0,0,0,4.135-2.084c.756-.883.7-2.727-1.481-3.957-2.312-1.3-5.25-.617-7.421-2.384a20.786,20.786,0,0,0,5.075,1.215c2.388.367,4.769.733,6.623,2.153Z" transform="translate(-54.021 -503.879)" fill="#e6e6e6" fill-rule="evenodd"/>
            <path id="Path_2349" data-name="Path 2349" d="M1.57,418.04c5.248,3.462,7.931.965,11.971,3.6a3.839,3.839,0,0,1,1.8,2.742c-1.876-1.316-4.2-1.673-6.529-2.032a16.66,16.66,0,0,1-5.919-1.66,8.068,8.068,0,0,1-1.32-2.648Z" transform="translate(-1.57 -418.04)" fill="#ed3237" fill-rule="evenodd"/>
            <path id="Path_2350" data-name="Path 2350" d="M186.391,573.185a4.968,4.968,0,0,1-.8,2.746,5.869,5.869,0,0,1-6.132,2.31,6.514,6.514,0,0,0,5.089-2.4,4.3,4.3,0,0,0,.422-3.515,7.692,7.692,0,0,1,1.42.856Z" transform="translate(-172.584 -566.366)" fill-rule="evenodd" fill="url(#linear-gradient-27)"/>
            <path id="Path_2351" data-name="Path 2351" d="M1.58,418.05c5.248,3.462,7.931.965,11.971,3.6a3.839,3.839,0,0,1,1.8,2.742,8.425,8.425,0,0,0-1.585-.865,3.274,3.274,0,0,0-1.339-1.386c-3.213-1.81-5.48.239-10.845-4.088Z" transform="translate(-1.58 -418.05)" fill-rule="evenodd" fill="url(#linear-gradient-28)"/>
          </g>
          <g id="Group_3004" data-name="Group 3004">
            <path id="Path_2352" data-name="Path 2352" d="M67.828,510.7a4.968,4.968,0,0,1-.8,2.746,5.869,5.869,0,0,1-6.132,2.31,6.5,6.5,0,0,0,4.135-2.084c.756-.883.7-2.727-1.481-3.957-2.312-1.3-5.25-.617-7.421-2.384a20.786,20.786,0,0,0,5.075,1.215c2.388.367,4.769.733,6.623,2.153Z" transform="translate(-54.021 -503.879)" fill="#e6e6e6" fill-rule="evenodd"/>
            <path id="Path_2353" data-name="Path 2353" d="M1.57,418.04c5.248,3.462,7.931.965,11.971,3.6a3.839,3.839,0,0,1,1.8,2.742c-1.876-1.316-4.2-1.673-6.529-2.032a16.66,16.66,0,0,1-5.919-1.66,8.068,8.068,0,0,1-1.32-2.648Z" transform="translate(-1.57 -418.04)" fill="#ed3237" fill-rule="evenodd"/>
            <path id="Path_2354" data-name="Path 2354" d="M186.391,573.185a4.968,4.968,0,0,1-.8,2.746,5.869,5.869,0,0,1-6.132,2.31,6.514,6.514,0,0,0,5.089-2.4,4.3,4.3,0,0,0,.422-3.515,7.692,7.692,0,0,1,1.42.856Z" transform="translate(-172.584 -566.366)" fill-rule="evenodd" fill="url(#linear-gradient-27)"/>
            <path id="Path_2355" data-name="Path 2355" d="M1.58,418.05c5.248,3.462,7.931.965,11.971,3.6a3.839,3.839,0,0,1,1.8,2.742,8.425,8.425,0,0,0-1.585-.865,3.274,3.274,0,0,0-1.339-1.386c-3.213-1.81-5.48.239-10.845-4.088Z" transform="translate(-1.58 -418.05)" fill-rule="evenodd" fill="url(#linear-gradient-28)"/>
          </g>
        </g>
        <g id="Group_3010" data-name="Group 3010" transform="translate(11.052)">
          <g id="Group_3007" data-name="Group 3007" transform="translate(0 7.655)">
            <g id="Group_3006" data-name="Group 3006">
              <path id="Path_2356" data-name="Path 2356" d="M317.57,199.306a4.967,4.967,0,0,1,2.592-1.208,5.869,5.869,0,0,1,5.778,3.09,6.5,6.5,0,0,0-4.292-1.737c-1.162.013-2.514,1.269-2,3.721.544,2.6,2.995,4.356,3.1,7.153a20.8,20.8,0,0,0-2.43-4.618c-1.3-2.039-2.591-4.07-2.744-6.4Z" transform="translate(-316.309 -198.049)" fill-rule="evenodd" fill="url(#linear-gradient-31)"/>
              <path id="Path_2357" data-name="Path 2357" d="M290.18,254.024c-.854-6.229-4.5-6.6-5.182-11.376a3.842,3.842,0,0,1,.878-3.158c.246,2.279,1.508,4.261,2.774,6.25a16.654,16.654,0,0,1,2.652,5.546,8.069,8.069,0,0,1-1.122,2.738Z" transform="translate(-284.951 -237.888)" fill="#c13437" fill-rule="evenodd"/>
            </g>
            <path id="Path_2358" data-name="Path 2358" d="M317.57,199.306a4.967,4.967,0,0,1,2.592-1.208,5.869,5.869,0,0,1,5.778,3.09,6.515,6.515,0,0,0-5.156-2.249,4.3,4.3,0,0,0-2.922,2,7.712,7.712,0,0,1-.292-1.632Z" transform="translate(-316.309 -198.049)" fill-rule="evenodd" fill="url(#linear-gradient-32)"/>
            <path id="Path_2359" data-name="Path 2359" d="M290.18,254.024c-.854-6.229-4.5-6.6-5.182-11.376a3.842,3.842,0,0,1,.878-3.158,8.432,8.432,0,0,0,.393,1.763,3.274,3.274,0,0,0-.16,1.92C286.865,246.782,289.9,247.138,290.18,254.024Z" transform="translate(-284.951 -237.888)" fill="#ed3237" fill-rule="evenodd"/>
          </g>
          <g id="Group_3008" data-name="Group 3008" transform="translate(3.843)">
            <path id="Path_2360" data-name="Path 2360" d="M392.681,110.058a4.966,4.966,0,0,1-2.627,1.131,5.868,5.868,0,0,1-5.683-3.261,6.5,6.5,0,0,0,4.239,1.864c1.162.022,2.551-1.194,2.11-3.66-.467-2.612-2.864-4.443-2.883-7.242a20.78,20.78,0,0,0,2.292,4.688c1.237,2.076,2.468,4.146,2.553,6.479Z" transform="translate(-384.37 -95.068)" fill="#e6e6e6" fill-rule="evenodd"/>
            <path id="Path_2361" data-name="Path 2361" d="M478.283,0c.668,6.251,4.3,6.732,4.841,11.525a3.841,3.841,0,0,1-.972,3.131c-.178-2.285-1.381-4.3-2.587-6.33A16.659,16.659,0,0,1,477.08,2.7a8.074,8.074,0,0,1,1.2-2.7Z" transform="translate(-473.496 0)" fill="#ed3237" fill-rule="evenodd"/>
            <path id="Path_2362" data-name="Path 2362" d="M392.681,334.83a4.966,4.966,0,0,1-2.627,1.131,5.868,5.868,0,0,1-5.683-3.261,6.513,6.513,0,0,0,5.087,2.4,4.3,4.3,0,0,0,2.98-1.911,7.72,7.72,0,0,1,.244,1.64Z" transform="translate(-384.37 -319.84)" fill-rule="evenodd" fill="url(#linear-gradient-33)"/>
            <path id="Path_2363" data-name="Path 2363" d="M508.2,0c.668,6.251,4.3,6.732,4.841,11.525a3.841,3.841,0,0,1-.972,3.131,8.417,8.417,0,0,0-.34-1.773,3.274,3.274,0,0,0,.217-1.915C511.3,7.337,508.276,6.892,508.2,0Z" transform="translate(-503.414 0)" fill-rule="evenodd" fill="url(#linear-gradient-34)"/>
          </g>
          <g id="Group_3009" data-name="Group 3009" transform="translate(3.843)">
            <path id="Path_2364" data-name="Path 2364" d="M392.681,110.058a4.966,4.966,0,0,1-2.627,1.131,5.868,5.868,0,0,1-5.683-3.261,6.5,6.5,0,0,0,4.239,1.864c1.162.022,2.551-1.194,2.11-3.66-.467-2.612-2.864-4.443-2.883-7.242a20.78,20.78,0,0,0,2.292,4.688c1.237,2.076,2.468,4.146,2.553,6.479Z" transform="translate(-384.37 -95.068)" fill="#e6e6e6" fill-rule="evenodd"/>
            <path id="Path_2365" data-name="Path 2365" d="M478.283,0c.668,6.251,4.3,6.732,4.841,11.525a3.841,3.841,0,0,1-.972,3.131c-.178-2.285-1.381-4.3-2.587-6.33A16.659,16.659,0,0,1,477.08,2.7a8.074,8.074,0,0,1,1.2-2.7Z" transform="translate(-473.496 0)" fill="#ed3237" fill-rule="evenodd"/>
            <path id="Path_2366" data-name="Path 2366" d="M392.681,334.83a4.966,4.966,0,0,1-2.627,1.131,5.868,5.868,0,0,1-5.683-3.261,6.513,6.513,0,0,0,5.087,2.4,4.3,4.3,0,0,0,2.98-1.911,7.72,7.72,0,0,1,.244,1.64Z" transform="translate(-384.37 -319.84)" fill-rule="evenodd" fill="url(#linear-gradient-33)"/>
            <path id="Path_2367" data-name="Path 2367" d="M508.2,0c.668,6.251,4.3,6.732,4.841,11.525a3.841,3.841,0,0,1-.972,3.131,8.417,8.417,0,0,0-.34-1.773,3.274,3.274,0,0,0,.217-1.915C511.3,7.337,508.276,6.892,508.2,0Z" transform="translate(-503.414 0)" fill-rule="evenodd" fill="url(#linear-gradient-34)"/>
          </g>
        </g>
        <g id="Group_3015" data-name="Group 3015" transform="translate(24.257 4.926)">
          <g id="Group_3012" data-name="Group 3012">
            <g id="Group_3011" data-name="Group 3011">
              <path id="Path_2368" data-name="Path 2368" d="M727.138,128.47a4.968,4.968,0,0,1,2.582,1.231,5.868,5.868,0,0,1,1.292,6.424,6.5,6.5,0,0,0-1.39-4.417c-.75-.889-2.579-1.132-4.144.824-1.657,2.072-1.455,5.082-3.548,6.94a20.8,20.8,0,0,0,2.017-4.813c.747-2.3,1.492-4.589,3.192-6.19Z" transform="translate(-718.185 -128.43)" fill-rule="evenodd" fill="url(#linear-gradient-37)"/>
              <path id="Path_2369" data-name="Path 2369" d="M625.04,140.01c4.262-4.622,2.229-7.672,5.479-11.235a3.841,3.841,0,0,1,3-1.332c-1.6,1.64-2.328,3.874-3.057,6.117a16.655,16.655,0,0,1-2.592,5.575,8.07,8.07,0,0,1-2.826.876Z" transform="translate(-625.04 -127.442)" fill="#c13437" fill-rule="evenodd"/>
            </g>
            <path id="Path_2370" data-name="Path 2370" d="M829.993,128.48a4.968,4.968,0,0,1,2.582,1.231,5.868,5.868,0,0,1,1.292,6.424,6.516,6.516,0,0,0-1.546-5.409,4.3,4.3,0,0,0-3.4-.983A7.721,7.721,0,0,1,829.993,128.48Z" transform="translate(-821.039 -128.44)" fill-rule="evenodd" fill="url(#linear-gradient-38)"/>
            <path id="Path_2371" data-name="Path 2371" d="M625.04,140.01c4.262-4.622,2.229-7.672,5.479-11.235a3.841,3.841,0,0,1,3-1.332,8.391,8.391,0,0,0-1.11,1.425,3.277,3.277,0,0,0-1.584,1.1c-2.3,2.88-.647,5.447-5.781,10.044Z" transform="translate(-625.04 -127.442)" fill="#ed3237" fill-rule="evenodd"/>
          </g>
          <g id="Group_3013" data-name="Group 3013" transform="translate(7.03 0.054)">
            <path id="Path_2372" data-name="Path 2372" d="M811.071,176.233a4.963,4.963,0,0,1-2.544-1.308,5.868,5.868,0,0,1-1.1-6.459,6.505,6.505,0,0,0,1.259,4.456c.722.911,2.544,1.208,4.166-.7,1.718-2.022,1.606-5.037,3.753-6.832a20.774,20.774,0,0,0-2.159,4.751c-.815,2.275-1.627,4.542-3.374,6.092Z" transform="translate(-806.906 -163.977)" fill="#e6e6e6" fill-rule="evenodd"/>
            <path id="Path_2373" data-name="Path 2373" d="M935.874,128.84c-4.4,4.493-2.456,7.6-5.811,11.068a3.842,3.842,0,0,1-3.034,1.242c1.649-1.591,2.442-3.8,3.237-6.023a16.655,16.655,0,0,1,2.756-5.5,8.07,8.07,0,0,1,2.851-.792Z" transform="translate(-922.387 -128.84)" fill="#ed3237" fill-rule="evenodd"/>
            <path id="Path_2374" data-name="Path 2374" d="M811.071,252.747a4.963,4.963,0,0,1-2.544-1.308,5.868,5.868,0,0,1-1.1-6.459,6.515,6.515,0,0,0,1.385,5.452,4.3,4.3,0,0,0,3.37,1.083,7.706,7.706,0,0,1-1.11,1.231Z" transform="translate(-806.906 -240.491)" fill-rule="evenodd" fill="url(#linear-gradient-39)"/>
            <path id="Path_2375" data-name="Path 2375" d="M935.874,128.84c-4.4,4.493-2.456,7.6-5.811,11.068a3.842,3.842,0,0,1-3.034,1.242,8.4,8.4,0,0,0,1.151-1.391,3.276,3.276,0,0,0,1.615-1.05c2.388-2.81.809-5.425,6.077-9.868Z" transform="translate(-922.387 -128.84)" fill-rule="evenodd" fill="url(#linear-gradient-40)"/>
          </g>
          <g id="Group_3014" data-name="Group 3014" transform="translate(7.03 0.054)">
            <path id="Path_2376" data-name="Path 2376" d="M811.071,176.233a4.963,4.963,0,0,1-2.544-1.308,5.868,5.868,0,0,1-1.1-6.459,6.505,6.505,0,0,0,1.259,4.456c.722.911,2.544,1.208,4.166-.7,1.718-2.022,1.606-5.037,3.753-6.832a20.774,20.774,0,0,0-2.159,4.751c-.815,2.275-1.627,4.542-3.374,6.092Z" transform="translate(-806.906 -163.977)" fill="#e6e6e6" fill-rule="evenodd"/>
            <path id="Path_2377" data-name="Path 2377" d="M935.874,128.84c-4.4,4.493-2.456,7.6-5.811,11.068a3.842,3.842,0,0,1-3.034,1.242c1.649-1.591,2.442-3.8,3.237-6.023a16.655,16.655,0,0,1,2.756-5.5,8.07,8.07,0,0,1,2.851-.792Z" transform="translate(-922.387 -128.84)" fill="#ed3237" fill-rule="evenodd"/>
            <path id="Path_2378" data-name="Path 2378" d="M811.071,252.747a4.963,4.963,0,0,1-2.544-1.308,5.868,5.868,0,0,1-1.1-6.459,6.515,6.515,0,0,0,1.385,5.452,4.3,4.3,0,0,0,3.37,1.083,7.706,7.706,0,0,1-1.11,1.231Z" transform="translate(-806.906 -240.491)" fill-rule="evenodd" fill="url(#linear-gradient-39)"/>
            <path id="Path_2379" data-name="Path 2379" d="M935.874,128.84c-4.4,4.493-2.456,7.6-5.811,11.068a3.842,3.842,0,0,1-3.034,1.242,8.4,8.4,0,0,0,1.151-1.391,3.276,3.276,0,0,0,1.615-1.05c2.388-2.81.809-5.425,6.077-9.868Z" transform="translate(-922.387 -128.84)" fill-rule="evenodd" fill="url(#linear-gradient-40)"/>
          </g>
        </g>
      </g>
    </g>
    <text id="umkmnusantara" transform="translate(157 114)" fill="#7f7f7f" font-size="16" font-family="OrchideaPro-Medium, Orchidea Pro" font-weight="500"><tspan x="-77.296" y="0">UMKM</tspan><tspan y="0" fill="#ed3237">NUSANTARA</tspan></text>
  </g>
</svg>
