<svg xmlns="http://www.w3.org/2000/svg" width="8.659" height="8.706" viewBox="0 0 8.659 8.706">
  <g id="btn_daftar" transform="translate(6)">
    <g id="arrow-down-sign-to-navigate" transform="translate(3.696 8.706) rotate(-90)">
      <path id="Path_36455" data-name="Path 36455" d="M4.353,4.963a.608.608,0,0,1-.431-.178L.179,1.041A.61.61,0,0,1,1.041.179L4.353,3.491,7.665.179a.61.61,0,0,1,.862.862L4.784,4.784A.608.608,0,0,1,4.353,4.963Z" transform="translate(0 -6)" fill="#fff"/>
    </g>
    <g id="arrow-down-sign-to-navigate-2" data-name="arrow-down-sign-to-navigate" transform="translate(0 8.706) rotate(-90)">
      <path id="Path_36455-2" data-name="Path 36455" d="M4.353,4.963a.608.608,0,0,1-.431-.178L.179,1.041A.61.61,0,0,1,1.041.179L4.353,3.491,7.665.179a.61.61,0,0,1,.862.862L4.784,4.784A.608.608,0,0,1,4.353,4.963Z" transform="translate(0 -6)" fill="#fff"/>
    </g>
  </g>
</svg>
